<?xml version="1.0" standalone="no"?>
<!DOCTYPE svg PUBLIC "-//W3C//DTD SVG 20010904//EN"
 "http://www.w3.org/TR/2001/REC-SVG-20010904/DTD/svg10.dtd">
<svg version="1.0" xmlns="http://www.w3.org/2000/svg"
 width="128.000000pt" height="128.000000pt" viewBox="0 0 128.000000 128.000000"
 preserveAspectRatio="xMidYMid meet">
<metadata>
Created by potrace 1.14, written by Peter Selinger 2001-2017
</metadata>
<g transform="translate(0.000000,128.000000) scale(0.100000,-0.100000)"
fill="#000000" stroke="none">
<path d="M48 1263 c-14 -9 -31 -27 -37 -40 -8 -16 -11 -206 -11 -584 0 -505 2
-564 17 -589 9 -16 27 -33 40 -39 33 -15 1133 -15 1166 0 13 6 31 23 40 39 15
25 17 84 17 589 0 381 -3 568 -11 584 -6 13 -23 31 -39 40 -25 15 -83 17 -592
17 -507 -1 -566 -2 -590 -17z"/>
</g>
</svg>
